<svg width="42" height="50" viewBox="0 0 42 50" fill="none" xmlns="http://www.w3.org/2000/svg">
<path d="M41.6748 7.55957C41.6748 7.55957 22.8543 0.274638 20.8545 24.3203L20.667 24.3682C20.7333 24.3554 20.8006 24.346 20.8672 24.332C20.9976 24.3044 21.1282 24.2802 21.2578 24.2559C32.659 20.6497 39.7949 32.7119 39.7949 32.7119V16.166L35.8662 15.2373C37.7748 14.7276 41.6787 14.5251 41.7109 14.5234V49.1396H39.4736C40.1853 34.1809 34.399 28.2008 29.0918 25.8418C27.1763 25.1002 24.2127 24.2507 21.502 24.7002C21.6379 25.6361 24.2005 45.0322 3.02344 45.0322V46.8652H23.4385L24.3311 35.5332L29.4619 35.9375C29.4619 35.9375 28.402 36.5926 25.5332 36.7949L25.9268 49.1514H0L0.0361328 41.5918C0.111827 41.621 18.2779 48.6042 20.75 25.9355L20.8555 24.832L20.4238 24.9316C20.3572 24.9457 20.2902 24.9569 20.2236 24.9697C8.97061 28.3292 1.93789 16.455 1.92871 16.4395V32.9863L5.84473 33.9023C3.92821 34.4142 0 34.6172 0 34.6172V0.0126953H2.25C1.63727 12.893 5.84285 19.1147 10.4111 22.1016C12.095 23.1748 15.8447 25.107 20.2061 24.4482C20.0648 23.471 17.5342 4.11935 38.6865 4.11914V2.29785H18.2842L17.3906 13.6299L12.2363 13.2139C12.2363 13.2139 13.2962 12.5588 16.165 12.3564L15.7725 0H41.71L41.6748 7.55957ZM33.0332 46.1035C34.4859 46.1035 35.6637 46.7856 35.6641 47.627C35.6641 48.4685 34.4861 49.1514 33.0332 49.1514C31.5804 49.1513 30.4023 48.4684 30.4023 47.627C30.4027 46.7857 31.5806 46.1036 33.0332 46.1035ZM7.96387 37.6523C7.96387 37.6523 3.7735 39.6164 0 39.4141V36.8428L7.96387 37.6523ZM24.3789 29.4736C28.2612 29.1659 31.4966 31.0711 31.5332 31.0811L24.3789 32.0215V29.4736ZM12.0107 29.8789L7.76074 31.0332V28.7598L12.0107 29.8789ZM33.8662 20.3438L29.6045 19.2246L33.8662 18.0703V20.3438ZM17.2363 19.6182C13.332 19.9394 10.082 18.0107 10.082 18.0107L17.2363 17.0703V19.6182ZM33.7471 11.4639C33.7471 11.4639 37.9256 9.49983 41.7109 9.70215V12.2734L33.7471 11.4639ZM8.77344 0C10.2262 0.000109237 11.4043 0.682973 11.4043 1.52441C11.404 2.36569 10.226 3.04774 8.77344 3.04785C7.32073 3.04785 6.14291 2.36576 6.14258 1.52441C6.14258 0.682905 7.32052 0 8.77344 0Z" fill="#F18C63"/>
</svg>
