<svg width="336" height="429" viewBox="0 0 336 429" fill="none" xmlns="http://www.w3.org/2000/svg">
<g filter="url(#filter0_d_4063_181)">
<path d="M24.1359 0.932792H4V21.0248H24.1359V0.932792Z" fill="#F18C63"/>
<path d="M331.569 0.932792H311.433V21.0248H331.569V0.932792Z" fill="#F18C63"/>
<path d="M24.1359 400.908H4V421H24.1359V400.908Z" fill="#F18C63"/>
<path d="M85.4785 400.908H65.3425V421H85.4785V400.908Z" fill="#F18C63"/>
<path d="M146.893 400.908H126.757V421H146.893V400.908Z" fill="#F18C63"/>
<path d="M208.236 400.908H188.1V421H208.236V400.908Z" fill="#F18C63"/>
<path d="M269.578 400.908H249.443V421H269.578V400.908Z" fill="#F18C63"/>
<path d="M331.569 400.908H311.433V421H331.569V400.908Z" fill="#F18C63"/>
<path d="M40.6043 3.44435C40.6043 1.79393 39.8851 1.36339 38.5907 1.0046V0.645815H51.8948C59.0862 0.645815 62.0346 3.01381 62.0346 6.02761C62.0346 8.96966 59.0862 11.4094 51.8948 11.4094H44.9191V17.7241C44.9191 19.231 45.5663 19.7333 46.9327 20.092V20.4508H38.5187V20.092C39.8851 19.7333 40.5323 19.231 40.5323 17.7241V3.44435H40.6043ZM46.1416 2.29623C45.3506 2.29623 44.8472 2.36799 44.8472 3.30084V9.61548H51.8228C55.85 9.61548 57.0007 7.82155 57.0007 5.95586C57.0007 4.09017 55.7781 2.29623 51.8228 2.29623H46.1416Z" fill="white"/>
<path d="M64.9831 14.1362H65.3427C66.781 18.2981 71.743 19.0157 75.2668 19.0157C79.4378 19.0157 83.2493 18.0828 83.2493 15.4278C83.2493 9.40021 65.3427 15.4996 65.3427 6.24289C65.3427 1.21987 71.2396 0.0717576 76.4894 0.0717576C79.5817 0.0717576 82.3144 0.574058 84.1842 1.72218C84.3999 1.65042 84.6157 1.57866 84.7595 1.21987H85.1191V5.8841H84.7595C84.1123 2.29623 78.8625 1.79393 76.5613 1.79393C72.6779 1.79393 69.0822 2.72678 69.0822 5.02301C69.0822 10.8354 86.9888 4.80774 86.9888 14.2797C86.9888 19.518 80.2289 20.8096 75.1949 20.8096C70.5924 20.8096 67.1405 19.805 65.1269 18.8004L64.9831 14.1362Z" fill="white"/>
<path d="M99.2861 0.574059V0.932846C97.9917 1.29163 97.2725 1.86569 97.2725 3.37259V17.8676C97.2725 19.231 97.9917 19.5897 99.2861 19.9485V20.3073H90.8722V19.9485C92.0947 19.5897 92.8858 19.231 92.8858 17.8676V3.44435C92.8858 1.79393 92.1666 1.36339 90.8722 1.0046V0.645815H99.2861V0.574059Z" fill="white"/>
<path d="M118.775 19.0874C122.155 19.0874 126.326 18.0111 128.124 14.5667H128.483L127.98 18.7287C124.816 20.0203 121.723 20.7379 118.056 20.7379C108.06 20.7379 102.882 15.7149 102.882 10.4048C102.882 5.16653 107.916 0 118.128 0C121.508 0 124.6 0.645816 127.261 1.5069C127.476 1.43515 127.692 1.29163 127.908 1.14812H128.196L127.548 6.3864H127.189C126.182 3.15732 122.442 1.72218 118.775 1.72218C113.309 1.72218 107.844 4.59247 107.844 10.3331C107.844 16.2889 113.309 19.0874 118.775 19.0874Z" fill="white"/>
<path d="M146.821 0.143515C154.3 0.143515 161.42 3.65962 161.42 10.2613C161.42 16.9347 154.085 20.8814 146.39 20.8814C138.983 20.8814 131.863 17.15 131.863 10.8354C131.863 4.09017 139.127 0.143515 146.821 0.143515ZM146.821 19.1592C152.287 19.1592 156.53 15.7866 156.53 10.7636C156.53 5.52531 152.574 1.86569 146.39 1.86569C140.924 1.86569 136.825 5.23828 136.825 10.2613C136.753 15.4996 140.637 19.1592 146.821 19.1592Z" fill="white"/>
<path d="M185.295 20.3791H165.231V20.0203C166.454 19.6615 167.245 19.231 167.245 17.8676V3.44435C167.245 1.79393 166.526 1.36339 165.231 1.0046V0.645815H173.645V1.0046C172.351 1.36339 171.632 1.93745 171.632 3.44435V17.7241C171.632 18.4416 171.919 18.6569 172.567 18.6569H182.059C183.713 18.6569 185.223 17.5805 186.158 15.9301H186.518L185.295 20.3791Z" fill="white"/>
<path d="M203.418 0.143515C210.897 0.143515 218.016 3.65962 218.016 10.2613C218.016 16.9347 210.681 20.8814 202.986 20.8814C195.579 20.8814 188.46 17.15 188.46 10.8354C188.46 4.09017 195.723 0.143515 203.418 0.143515ZM203.418 19.1592C208.883 19.1592 213.126 15.7866 213.126 10.7636C213.126 5.52531 209.171 1.86569 202.986 1.86569C197.521 1.86569 193.422 5.23828 193.422 10.2613C193.35 15.4996 197.233 19.1592 203.418 19.1592Z" fill="white"/>
<path d="M245.056 1.65042C245.272 1.57866 245.344 1.57866 245.559 1.43515H245.919L245.559 6.24289H245.2C243.977 2.65502 239.375 1.79393 235.995 1.79393C230.889 1.79393 225.711 4.66423 225.711 10.4048C225.711 16.3607 230.314 19.0874 235.419 19.0874C237.433 19.0874 239.734 18.6569 241.532 17.8676V14.9255C241.532 13.4186 240.597 12.7728 239.519 12.4858V12.127H247.932V12.4858C246.638 12.8446 245.847 13.3469 245.847 14.9255V18.5134C242.827 20.092 238.656 20.8814 235.419 20.8814C227.005 20.8814 220.893 16.9347 220.893 10.4766C220.893 5.23828 225.567 0.143515 235.995 0.143515C239.806 0.143515 243.042 1.0046 245.056 1.65042Z" fill="white"/>
<path d="M260.302 0.574059V0.932846C259.007 1.29163 258.288 1.86569 258.288 3.37259V17.8676C258.288 19.231 259.007 19.5897 260.302 19.9485V20.3073H251.888V19.9485C253.11 19.5897 253.901 19.231 253.901 17.8676V3.44435C253.901 1.79393 253.182 1.36339 251.888 1.0046V0.645815H260.302V0.574059Z" fill="white"/>
<path d="M283.889 15.069H270.226L268.644 17.6523C268.5 17.9393 268.428 18.1546 268.428 18.3699C268.428 19.3027 269.651 19.7333 270.585 20.0203V20.3791H262.1V20.0203C263.034 19.805 264.688 19.3027 266.63 16.3607L275.619 2.15272L275.547 2.00921C275.116 1.43515 273.893 1.07636 273.39 1.0046V0.645815H279.862L290.434 17.437C291.584 19.3027 292.951 19.805 293.814 20.092V20.4508H283.53V20.092C284.537 19.805 285.759 19.231 285.759 18.3699C285.759 18.1546 285.687 17.8676 285.472 17.6523L283.889 15.069ZM271.592 12.9163H282.595L277.13 4.01841L271.592 12.9163Z" fill="white"/>
<path d="M44.128 377.874H19.03L16.0816 382.682C15.7939 383.184 15.6501 383.615 15.6501 383.973C15.6501 385.624 17.8794 386.485 19.6054 386.915V387.561H4V386.915C5.72594 386.485 8.74633 385.552 12.2701 380.17L28.8103 354.051L28.6665 353.835C27.8755 352.759 25.6461 352.113 24.6393 351.97V351.252H36.5771L55.9219 382.108C58.0075 385.48 60.5244 386.485 62.1785 386.915V387.561H43.2651V386.915C45.1348 386.413 47.4361 385.337 47.4361 383.686C47.4361 383.256 47.2923 382.825 46.9327 382.323L44.128 377.874ZM21.4751 373.999H41.683L31.6869 357.638L21.4751 373.999Z" fill="white"/>
<path d="M91.016 386.915V387.561H75.6264V386.915C77.9996 386.27 79.5098 385.48 79.5098 382.897V354.696H67.5001C63.1134 354.696 61.4593 356.993 60.3087 359.289H59.6615L60.6683 351.252H105.902L106.909 359.289H106.262C105.111 356.993 103.457 354.696 99.0704 354.696H87.0607V382.897C87.1326 385.48 88.7148 386.341 91.016 386.915Z" fill="white"/>
<path d="M130.425 351.252V351.97C128.052 352.687 126.685 353.62 126.685 356.49V383.112C126.685 385.624 128.052 386.27 130.425 386.915V387.561H115.035V386.915C117.265 386.27 118.775 385.552 118.775 383.112V356.49C118.775 353.548 117.48 352.687 115.035 351.97V351.252H130.425Z" fill="white"/>
<path d="M188.028 388.638H187.309L149.41 358.356V382.897C149.41 385.48 150.848 386.341 153.078 386.915V387.561H140.924V386.915C143.154 386.341 144.664 385.48 144.664 382.897V355.844C144.664 353.405 143.082 352.544 140.924 351.97V351.252H151.999L183.426 376.654V355.988C183.426 353.477 181.843 352.615 179.686 351.97V351.252H191.696V351.97C189.466 352.615 188.028 353.405 188.028 355.988V388.638Z" fill="white"/>
<path d="M243.977 353.261C244.337 353.189 244.553 353.046 244.84 352.902H245.559L244.912 361.729H244.193C241.892 355.127 233.478 353.548 227.293 353.548C217.872 353.548 208.452 358.858 208.452 369.335C208.452 380.314 216.938 385.265 226.286 385.265C230.026 385.265 234.269 384.404 237.505 383.041V377.587C237.505 374.788 235.851 373.712 233.765 373.066V372.42H249.227V373.066C246.854 373.784 245.344 374.645 245.344 377.587V384.117C239.734 386.987 232.111 388.494 226.143 388.494C210.753 388.494 199.39 381.247 199.39 369.407C199.39 359.791 207.948 350.463 227.149 350.463C234.341 350.391 240.31 352.041 243.977 353.261Z" fill="white"/>
<path d="M273.822 351.252V351.97C271.448 352.687 270.082 353.62 270.082 356.49V383.112C270.082 385.624 271.448 386.27 273.822 386.915V387.561H258.432V386.915C260.661 386.27 262.171 385.552 262.171 383.112V356.49C262.171 353.548 260.877 352.687 258.432 351.97V351.252H273.822Z" fill="white"/>
<path d="M288.132 356.49C288.132 353.548 286.838 352.615 284.393 351.97V351.252H309.275C321.429 351.252 327.397 355.629 327.397 361.083C327.397 366.608 322.004 370.914 311.433 370.914L325.528 383.041C328.404 385.48 330.634 386.413 332 386.844V387.489H320.134L298.416 368.689V367.828H308.7C315.244 367.828 318.336 365.029 318.336 361.083C318.336 357.136 315.244 354.481 308.7 354.481H298.2C296.834 354.481 295.971 354.553 295.971 356.203V382.466C295.971 385.265 297.194 386.198 299.711 386.844V387.489H284.321V386.844C286.838 386.126 288.061 385.265 288.061 382.466V356.49H288.132Z" fill="white"/>
<path d="M88.0676 209.316V223.022L113.741 215.989L88.0676 209.316Z" fill="#F18C63"/>
<path d="M188.46 213.621V228.978L231.68 223.309C231.68 223.38 212.047 211.684 188.46 213.621Z" fill="#F18C63"/>
<path d="M245.775 158.512V144.806L220.03 151.838L245.775 158.512Z" fill="#F18C63"/>
<path d="M145.311 154.206V138.85L102.091 144.519C102.091 144.447 121.723 156.072 145.311 154.206Z" fill="#F18C63"/>
<path d="M293.166 94.3608V109.86L245.056 104.981C245.056 105.053 270.298 93.141 293.166 94.3608Z" fill="#F18C63"/>
<path d="M41.1796 273.539V258.039L89.2901 262.919C89.2901 262.919 63.9764 274.759 41.1796 273.539Z" fill="#F18C63"/>
<path d="M94.1803 54.3203C102.958 54.3203 110.073 50.208 110.073 45.1353C110.073 40.0626 102.958 35.9504 94.1803 35.9504C85.4028 35.9504 78.2873 40.0626 78.2873 45.1353C78.2873 50.208 85.4028 54.3203 94.1803 54.3203Z" fill="#F18C63"/>
<path d="M240.741 332.236C249.519 332.236 256.634 328.124 256.634 323.051C256.634 317.979 249.519 313.866 240.741 313.866C231.964 313.866 224.848 317.979 224.848 323.051C224.848 328.124 231.964 332.236 240.741 332.236Z" fill="#F18C63"/>
<path d="M281.588 133.397V233.211C281.588 233.211 238.728 160.952 170.193 182.048C169.187 182.192 168.18 182.407 167.173 182.622C179.255 37.6008 293.023 81.5163 293.023 81.5163L293.238 35.9504H136.466L138.839 110.434C121.508 111.583 115.107 115.601 115.107 115.601L146.246 118.041L151.64 49.7278H274.972V60.7784C147.684 60.7784 162.283 176.379 163.29 183.196C127.405 188.722 98.3513 165.114 98.3513 165.114V165.185C73.0376 145.811 51.2476 108.282 54.6995 35.9504H41.1796V244.621C41.1796 244.621 64.9113 243.401 76.4894 240.315L52.8297 234.79V134.975C52.8297 134.975 95.259 206.518 163.146 186.425C164.512 186.138 165.807 185.851 167.173 185.564C155.02 330.514 41.3235 286.599 41.3235 286.599L41.1077 332.165H197.808L195.435 257.68C212.767 256.532 219.167 252.514 219.167 252.514L188.028 250.074L182.635 318.387H59.3739V307.337C187.309 307.337 171.847 190.516 171.056 184.775C187.165 182.12 204.784 187 216.362 191.448C248.58 205.513 283.961 241.463 279.647 332.165H293.166V123.494C293.166 123.494 269.435 124.714 257.857 127.8L281.588 133.397Z" fill="#F18C63"/>
<path d="M13.2768 329.725V323.912C13.2768 323.123 12.5576 322.621 11.7666 322.406V322.047H16.2972V322.406C15.5061 322.549 14.8589 323.051 14.8589 323.912V329.725H19.3895C20.5401 329.725 20.9716 329.151 21.2592 328.146H21.5469V335.107H21.2592C21.0435 334.174 20.4682 333.6 19.0299 333.6H8.60236C7.45173 333.6 6.94834 334.03 6.73259 335.107H6.37302V319.894C6.37302 319.679 6.2292 319.392 6.15728 319.248V318.889L9.68107 319.392V319.679C9.03384 319.751 8.17088 320.038 8.09896 320.755C8.02705 321.114 8.02705 321.544 8.02705 321.975V329.653H13.2768V329.725Z" fill="white"/>
<path d="M6.01345 305.04C6.01345 299.371 8.74619 293.846 13.7802 293.846C18.8861 293.846 21.9065 299.515 21.9065 305.399C21.9065 311.14 19.0299 316.665 14.0678 316.665C9.10576 316.665 6.01345 311.068 6.01345 305.04ZM20.4682 305.184C20.4682 301.094 17.9512 298.152 14.1397 298.152C10.4002 298.152 7.66748 301.022 7.66748 305.327C7.66748 309.417 10.1126 312.288 13.9959 312.288C17.7354 312.288 20.4682 309.489 20.4682 305.184Z" fill="white"/>
<path d="M21.9784 270.382V270.74L9.96873 286.886H19.5333C20.5401 286.886 20.9716 286.312 21.2592 285.379H21.5469V290.976H21.2592C21.0435 290.043 20.612 289.397 19.6052 289.397H8.38662C7.37982 289.397 6.94834 290.115 6.73259 290.976H6.37302V285.881L16.0095 272.893H8.45853C7.45174 272.893 7.02025 273.539 6.80451 274.472H6.44494V268.803H6.80451C7.02025 269.736 7.52365 270.382 8.45853 270.382H21.9784Z" fill="white"/>
<path d="M6.01345 254.523C6.01345 248.854 8.74619 243.329 13.7802 243.329C18.8861 243.329 21.9065 248.998 21.9065 254.882C21.9065 260.623 19.0299 266.148 14.0678 266.148C9.10576 266.22 6.01345 260.551 6.01345 254.523ZM20.4682 254.738C20.4682 250.648 17.9512 247.706 14.1397 247.706C10.4002 247.706 7.66748 250.576 7.66748 254.882C7.66748 258.972 10.1126 261.842 13.9959 261.842C17.7354 261.842 20.4682 259.044 20.4682 254.738Z" fill="white"/>
<path d="M17.6635 226.323V236.153L19.4614 237.301C20.3244 237.875 20.8997 237.014 21.1873 235.794H21.475V242.396H21.2592C21.0435 241.033 20.1805 240.243 19.0299 239.526L8.02705 232.565L7.8113 232.709C7.37982 232.996 6.94834 233.714 6.80451 234.431H6.44494V228.906L19.1018 221.012C20.3244 220.223 21.1154 219.362 21.2592 218.214H21.5469V226.825H21.2592C21.0435 225.892 20.3963 224.672 19.4614 225.246L17.6635 226.323ZM15.7219 235.005V227.542L9.60916 231.202L15.7219 235.005Z" fill="white"/>
<path d="M14.8589 199.844C19.8929 199.844 21.9784 204.221 21.9784 208.742C21.9784 213.765 20.1805 217.783 14.8589 217.783H8.67427C7.52365 217.783 7.02025 218.357 6.80451 219.362H6.44494V212.258H6.80451C7.09216 213.191 7.52365 213.837 8.67427 213.837H14.9308C19.2456 213.837 20.3963 211.541 20.3963 208.383C20.3963 205.656 19.3895 202.643 14.9308 202.643H8.67427C7.52365 202.643 7.02025 203.217 6.80451 204.15H6.44494V198.265H6.80451C7.02025 199.27 7.52365 199.844 8.67427 199.844H14.8589Z" fill="white"/>
<path d="M21.5469 195.252H21.2592C20.9716 194.247 20.5401 193.673 19.3895 193.673H8.60236C7.45173 193.673 6.94834 194.175 6.73259 195.252H6.37302V186.425C6.37302 177.312 9.8249 173.796 13.924 173.796C18.0231 173.796 21.475 177.312 21.475 186.425V195.252H21.5469ZM19.6052 189.87C19.821 189.87 19.9648 189.655 19.9648 189.368V186.425C19.9648 180.541 17.304 178.102 13.924 178.102C10.544 178.102 7.95513 180.541 7.95513 186.354V189.87H19.6052Z" fill="white"/>
<path d="M6.80451 163.822C7.02025 164.898 7.52365 165.401 8.67427 165.401H19.6052C20.612 165.401 21.0435 164.755 21.3311 163.822H21.6188V170.782H21.2592C21.0435 169.85 20.612 169.275 19.6052 169.275H8.60236C7.45173 169.275 6.94834 169.778 6.73259 170.782H6.37302V163.822H6.80451Z" fill="white"/>
<path d="M6.01345 149.183C6.01345 143.515 8.74619 137.989 13.7802 137.989C18.8861 137.989 21.9065 143.658 21.9065 149.542C21.9065 155.283 19.0299 160.808 14.0678 160.808C9.10576 160.808 6.01345 155.211 6.01345 149.183ZM20.4682 149.327C20.4682 145.237 17.9512 142.295 14.1397 142.295C10.4002 142.295 7.66748 145.165 7.66748 149.47C7.66748 153.561 10.1126 156.431 13.9959 156.431C17.7354 156.431 20.4682 153.632 20.4682 149.327Z" fill="white"/>
<path d="M6.80451 127.943C7.02025 129.02 7.52365 129.522 8.67427 129.522H19.5333C19.9648 129.522 20.1086 129.378 20.1086 129.163V121.485C20.1086 120.193 19.1018 119.117 18.0231 118.615V118.256L21.6188 119.189V134.904H21.2592C21.0435 133.971 20.5401 133.397 19.5333 133.397H8.60236C7.45173 133.397 6.94834 133.899 6.73259 134.904H6.37302V127.943H6.80451Z" fill="white"/>
<path d="M6.01345 105.34C6.01345 99.6709 8.74619 94.1456 13.7802 94.1456C18.8861 94.1456 21.9065 99.8144 21.9065 105.698C21.9065 111.439 19.0299 116.964 14.0678 116.964C9.10576 116.964 6.01345 111.367 6.01345 105.34ZM20.4682 105.483C20.4682 101.393 17.9512 98.451 14.1397 98.451C10.4002 98.451 7.66748 101.321 7.66748 105.627C7.66748 109.717 10.1126 112.587 13.9959 112.587C17.7354 112.659 20.4682 109.86 20.4682 105.483Z" fill="white"/>
<path d="M20.0367 72.2596C21.3311 74.7711 21.9784 77.3544 21.9784 80.2964C21.9784 86.7546 18.8142 92.1364 13.924 92.1364C9.89681 92.1364 6.01345 88.5485 6.01345 80.6552C6.01345 77.8567 6.44494 75.1299 7.09216 73.2642C7.02025 72.7619 6.87642 72.5466 6.58877 72.3313V72.0443L10.616 72.2596V72.6184C8.45853 73.3359 7.59556 77.4261 7.59556 80.0094C7.59556 83.956 9.60916 87.8309 13.924 87.8309C18.095 87.8309 20.2524 84.1713 20.2524 79.7941C20.2524 78.359 19.9648 77.2108 19.4614 76.0627H17.232C16.0095 76.0627 15.5061 76.8521 15.2904 77.6414H15.0027V70.6809H15.2904C15.5061 71.6855 16.0095 72.2596 17.232 72.2596H20.0367Z" fill="white"/>
<path d="M6.80451 60.3479C7.02025 61.4242 7.52365 61.9265 8.67427 61.9265H19.6052C20.612 61.9265 21.0435 61.3525 21.3311 60.3479H21.6188V67.3083H21.2592C21.0435 66.3755 20.612 65.8014 19.6052 65.8014H8.60236C7.45173 65.8014 6.94834 66.3037 6.73259 67.3083H6.37302V60.3479H6.80451Z" fill="white"/>
<path d="M17.6635 42.265V52.0958L19.4614 53.2439C20.3244 53.818 20.8997 52.9569 21.1873 51.737H21.475V58.3387H21.2592C21.0435 56.9753 20.1805 56.186 19.0299 55.4684L7.95513 48.5079L7.73939 48.6514C7.30791 48.9385 6.87642 49.656 6.73259 50.3736H6.37302V44.9201L19.1018 36.955C20.3244 36.1657 21.1154 35.3046 21.2592 34.1565H21.5469V42.7673H21.2592C21.0435 41.8345 20.3963 40.6146 19.4614 41.1887L17.6635 42.265ZM15.7219 50.8759V43.4132L9.68107 47.0728L15.7219 50.8759Z" fill="white"/>
<path d="M326.463 37.3138C327.541 37.3138 327.973 36.7398 328.26 35.8787H328.548V45.3506C328.548 51.0912 326.75 53.0287 324.449 53.0287C322.22 53.0287 320.35 50.9477 320.35 45.3506V40.9017H316.323C315.244 40.9017 314.812 41.404 314.525 42.3368H314.237V35.8069H314.525C314.812 36.7398 315.172 37.2421 316.323 37.2421H326.463V37.3138ZM327.11 41.404C327.11 40.9734 327.038 40.8299 326.606 40.8299H321.86V44.9201C321.86 47.5033 322.723 48.9385 324.521 48.9385C326.319 48.9385 327.182 47.5751 327.182 44.9201V41.404H327.11Z" fill="white"/>
<path d="M319.055 53.8898V54.2485C316.179 55.4684 315.532 58.7692 315.532 61.7831C315.532 64.7969 316.107 67.3084 317.833 67.3084C321.716 67.3084 317.545 54.3203 324.377 54.3203C328.404 54.3203 328.836 58.9845 328.836 61.8548C328.836 65.5862 328.26 67.0213 327.757 68.0259L328.188 68.3847V68.6718H324.089V68.3847C326.319 68.0977 327.182 65.1556 327.182 62.3571C327.182 59.7739 326.894 57.2623 325.24 57.2623C321.429 57.2623 325.528 70.1787 318.696 70.1787C314.453 70.1787 313.878 65.3709 313.878 61.7831C313.878 58.0517 314.525 55.5402 315.244 54.1768L319.055 53.8898Z" fill="white"/>
<path d="M328.548 79.0048H328.26C328.045 78.0002 327.613 77.4979 326.463 77.4979H316.179C315.244 77.4979 314.812 78.072 314.597 79.0048H314.309V72.4749H314.597C314.812 73.336 315.244 73.91 316.179 73.91H326.463C327.541 73.91 327.973 73.4795 328.26 72.4749H328.548V79.0048Z" fill="white"/>
<path d="M315.604 92.2081C315.604 95.0067 316.61 98.164 318.696 99.3121V99.5992L315.244 99.0251C314.453 96.9441 313.949 94.8632 313.949 92.1364C313.949 84.6736 317.617 80.9423 321.429 80.9423C325.24 80.9423 328.908 84.7454 328.908 92.0646C328.908 94.5044 328.476 96.6571 327.901 98.3793C327.901 98.6663 328.045 98.7381 328.117 98.8816V99.1686L324.377 98.8816V98.5946C326.463 97.877 327.326 94.7197 327.326 92.1364C327.326 88.405 325.384 84.9607 321.429 84.9607C317.401 84.9607 315.604 88.6203 315.604 92.2081Z" fill="white"/>
<path d="M328.908 111.941C328.908 117.251 326.319 122.49 321.572 122.49C316.754 122.49 313.878 117.18 313.878 111.583C313.878 106.129 316.538 100.963 321.213 100.963C326.031 101.034 328.908 106.273 328.908 111.941ZM315.388 111.798C315.388 115.673 317.761 118.4 321.357 118.4C324.88 118.4 327.469 115.745 327.469 111.654C327.469 107.779 325.168 105.124 321.5 105.124C317.905 105.124 315.388 107.779 315.388 111.798Z" fill="white"/>
<path d="M326.534 127.872C327.685 128.159 328.045 127.297 328.26 126.508H328.548V131.746L319.199 137.128L328.548 142.797V147.677H328.26C328.045 146.815 327.541 146.098 326.534 146.313L317.258 148.609C315.172 149.112 314.884 149.47 314.597 150.403H314.309V144.304H314.597C314.669 144.95 314.956 145.165 315.675 145.165C316.035 145.165 316.538 145.093 317.114 144.95L325.384 143.012L314.093 136.267V135.98L325.312 129.594L317.114 127.8C316.61 127.656 316.179 127.585 315.819 127.585C315.028 127.585 314.741 127.943 314.597 128.517H314.309V123.853H314.597C314.741 124.427 315.028 125.073 316.97 125.575L326.534 127.872Z" fill="white"/>
<path d="M328.908 161.884C328.908 167.195 326.319 172.433 321.572 172.433C316.754 172.433 313.878 167.123 313.878 161.526C313.878 156.072 316.538 150.906 321.213 150.906C326.031 150.977 328.908 156.216 328.908 161.884ZM315.388 161.741C315.388 165.616 317.761 168.343 321.357 168.343C324.88 168.343 327.469 165.688 327.469 161.597C327.469 157.723 325.168 155.068 321.5 155.068C317.905 155.068 315.388 157.723 315.388 161.741Z" fill="white"/>
<path d="M325.312 190.731V190.444C325.959 190.157 327.038 189.439 327.038 188.65V183.842H316.251C315.316 183.842 314.884 184.488 314.669 185.349H314.381V178.747H314.669C314.884 179.609 315.316 180.254 316.251 180.254H327.038V175.518C327.038 174.729 326.103 174.083 325.312 173.724V173.437L328.62 173.868V190.444L325.312 190.731Z" fill="white"/>
<path d="M326.463 194.175C327.541 194.175 327.973 193.601 328.26 192.74H328.548V203.432C328.548 207.809 326.822 209.962 324.593 209.962C322.579 209.962 320.925 208.096 320.709 204.508L316.251 209.603C315.244 210.751 314.741 211.684 314.669 212.186H314.381V206.805L321.932 198.696H322.22V202.14C322.22 204.795 323.298 205.872 324.737 205.872C326.103 205.872 327.182 204.867 327.182 202.14V198.481C327.182 198.122 327.182 197.835 326.678 197.835H316.466C315.388 197.835 314.956 198.337 314.669 199.27H314.381V192.74H314.669C314.956 193.673 315.316 194.175 316.466 194.175H326.463Z" fill="white"/>
<path d="M328.548 220.008H328.26C328.045 219.003 327.613 218.501 326.463 218.501H316.179C315.244 218.501 314.812 219.075 314.597 220.008H314.309V213.478H314.597C314.812 214.339 315.244 214.913 316.179 214.913H326.463C327.541 214.913 327.973 214.483 328.26 213.478H328.548V220.008Z" fill="white"/>
<path d="M315.604 233.283C315.604 236.082 316.61 239.239 318.696 240.387V240.674L315.244 240.1C314.453 238.019 313.949 235.938 313.949 233.211C313.949 225.749 317.617 222.017 321.429 222.017C325.24 222.017 328.908 225.82 328.908 233.139C328.908 235.579 328.476 237.732 327.901 239.454C327.901 239.741 328.045 239.813 328.117 239.956V240.243L324.377 239.956V239.669C326.463 238.952 327.326 235.795 327.326 233.211C327.326 229.48 325.384 226.036 321.429 226.036C317.401 226.036 315.604 229.623 315.604 233.283Z" fill="white"/>
<path d="M328.548 249.644H328.26C328.045 248.639 327.613 248.137 326.463 248.137H316.179C315.244 248.137 314.812 248.711 314.597 249.644H314.309V243.114H314.597C314.812 243.975 315.244 244.549 316.179 244.549H326.463C327.541 244.549 327.973 244.118 328.26 243.114H328.548V249.644Z" fill="white"/>
<path d="M314.309 252.586H314.597C314.884 253.519 315.244 254.021 316.395 254.021H326.463C327.541 254.021 327.973 253.519 328.26 252.586H328.548V260.91C328.548 269.52 325.312 272.75 321.429 272.75C317.545 272.75 314.309 269.449 314.309 260.91V252.586ZM316.107 257.609C315.891 257.609 315.747 257.824 315.747 258.111V260.838C315.747 266.363 318.264 268.659 321.429 268.659C324.593 268.659 327.038 266.363 327.038 260.91V257.609H316.107Z" fill="white"/>
<path d="M317.977 287.89V278.634L316.251 277.557C315.388 276.983 314.884 277.844 314.597 278.992H314.309V272.75H314.597C314.812 274.041 315.604 274.759 316.682 275.476L327.038 282.006L327.254 281.863C327.685 281.576 328.045 280.93 328.188 280.212H328.476V285.379L316.538 292.913C315.388 293.631 314.669 294.492 314.525 295.568H314.237V287.46H314.525C314.741 288.321 315.316 289.469 316.251 288.895L317.977 287.89ZM319.775 279.71V286.742L325.528 283.298L319.775 279.71Z" fill="white"/>
<path d="M314.309 295.999H314.597C314.884 296.932 315.244 297.434 316.395 297.434H326.463C327.541 297.434 327.973 296.932 328.26 295.999H328.548V304.323C328.548 312.934 325.312 316.163 321.429 316.163C317.545 316.163 314.309 312.862 314.309 304.323V295.999ZM316.107 301.022C315.891 301.022 315.747 301.237 315.747 301.524V304.251C315.747 309.776 318.264 312.073 321.429 312.073C324.593 312.073 327.038 309.776 327.038 304.323V301.022H316.107Z" fill="white"/>
<path d="M322.363 323.267V328.361C322.363 329.51 322.579 330.371 323.802 330.658V330.945L319.487 330.586V330.299C320.638 330.084 320.925 329.51 320.925 328.361V323.267H316.107C315.891 323.267 315.819 323.338 315.819 323.554V331.232C315.819 332.954 316.754 333.815 317.761 334.174V334.461L314.309 333.6V318.1H314.597C314.884 319.033 315.244 319.535 316.395 319.535H326.463C327.541 319.535 327.973 318.961 328.26 318.1H328.548V332.739C328.548 333.026 328.548 333.384 328.764 333.6V333.887L325.384 333.456V333.169C326.103 333.097 327.038 332.739 327.038 330.729V323.267H322.363Z" fill="white"/>
</g>
<defs>
<filter id="filter0_d_4063_181" x="0" y="0" width="336" height="429" filterUnits="userSpaceOnUse" color-interpolation-filters="sRGB">
<feFlood flood-opacity="0" result="BackgroundImageFix"/>
<feColorMatrix in="SourceAlpha" type="matrix" values="0 0 0 0 0 0 0 0 0 0 0 0 0 0 0 0 0 0 127 0" result="hardAlpha"/>
<feOffset dy="4"/>
<feGaussianBlur stdDeviation="2"/>
<feComposite in2="hardAlpha" operator="out"/>
<feColorMatrix type="matrix" values="0 0 0 0 0 0 0 0 0 0 0 0 0 0 0 0 0 0 0.25 0"/>
<feBlend mode="normal" in2="BackgroundImageFix" result="effect1_dropShadow_4063_181"/>
<feBlend mode="normal" in="SourceGraphic" in2="effect1_dropShadow_4063_181" result="shape"/>
</filter>
</defs>
</svg>
