<svg style="fill:currentColor;" width="152" height="172" viewBox="0 0 152 172" xmlns="http://www.w3.org/2000/svg">
<g filter="url(#filter0_f_4028_404)">
<rect x="4" y="4" width="143.357" height="163.518"/>
</g>
<path d="M23.7747 10.7832H16.5381V18.0351H23.7747V10.7832Z"/>
<path d="M134.262 10.7832H127.026V18.0351H134.262V10.7832Z"/>
<path d="M23.7747 155.149H16.5381V162.4H23.7747V155.149Z"/>
<path d="M45.8205 155.149H38.5839V162.4H45.8205V155.149Z"/>
<path d="M67.8923 155.149H60.6557V162.4H67.8923V155.149Z"/>
<path d="M89.9381 155.149H82.7015V162.4H89.9381V155.149Z"/>
<path d="M111.984 155.149H104.747V162.4H111.984V155.149Z"/>
<path d="M134.262 155.149H127.026V162.4H134.262V155.149Z"/>
<path d="M29.6932 11.6897C29.6932 11.094 29.4348 10.9386 28.9696 10.8091V10.6796H33.7509C36.3354 10.6796 37.3951 11.5343 37.3951 12.6221C37.3951 13.684 36.3354 14.5646 33.7509 14.5646H31.2439V16.8438C31.2439 17.3877 31.4765 17.569 31.9676 17.6985V17.828H28.9437V17.6985C29.4348 17.569 29.6674 17.3877 29.6674 16.8438V11.6897H29.6932ZM31.6833 11.2753C31.399 11.2753 31.2181 11.3012 31.2181 11.6379V13.9171H33.7251C35.1724 13.9171 35.5859 13.2696 35.5859 12.5962C35.5859 11.9228 35.1465 11.2753 33.7251 11.2753H31.6833Z"/>
<path d="M38.4547 15.5488H38.5839C39.1008 17.051 40.8842 17.31 42.1506 17.31C43.6496 17.31 45.0194 16.9733 45.0194 16.015C45.0194 13.8394 38.5839 16.0409 38.5839 12.6998C38.5839 10.8868 40.7032 10.4724 42.5899 10.4724C43.7013 10.4724 44.6834 10.6537 45.3554 11.0681C45.4329 11.0422 45.5104 11.0163 45.5621 10.8868H45.6913V12.5703H45.5621C45.3295 11.2753 43.4428 11.094 42.6158 11.094C41.2201 11.094 39.9279 11.4307 39.9279 12.2595C39.9279 14.3574 46.3633 12.1818 46.3633 15.6006C46.3633 17.4913 43.9339 17.9575 42.1247 17.9575C40.4706 17.9575 39.2301 17.5949 38.5064 17.2323L38.4547 15.5488Z"/>
<path d="M50.7828 10.6537V10.7832C50.3176 10.9127 50.0592 11.1199 50.0592 11.6638V16.8956C50.0592 17.3877 50.3176 17.5172 50.7828 17.6467V17.7762H47.759V17.6467C48.1983 17.5172 48.4826 17.3877 48.4826 16.8956V11.6897C48.4826 11.094 48.2242 10.9386 47.759 10.8091V10.6796H50.7828V10.6537Z"/>
<path d="M57.7868 17.3359C59.0016 17.3359 60.5006 16.9474 61.1467 15.7042H61.2759L61.095 17.2064C59.9578 17.6726 58.8465 17.9316 57.5284 17.9316C53.9359 17.9316 52.0751 16.1186 52.0751 14.202C52.0751 12.3113 53.8842 10.4465 57.5542 10.4465C58.769 10.4465 59.8803 10.6796 60.8366 10.9904C60.9141 10.9645 60.9916 10.9127 61.0692 10.8609H61.1726L60.9399 12.7516H60.8107C60.4489 11.5861 59.1049 11.0681 57.7868 11.0681C55.8226 11.0681 53.8584 12.1041 53.8584 14.1761C53.8584 16.3258 55.8226 17.3359 57.7868 17.3359Z"/>
<path d="M67.8664 10.4983C70.5543 10.4983 73.113 11.7674 73.113 14.1502C73.113 16.5589 70.4768 17.9834 67.7114 17.9834C65.0493 17.9834 62.4907 16.6366 62.4907 14.3574C62.4907 11.9228 65.101 10.4983 67.8664 10.4983ZM67.8664 17.3618C69.8307 17.3618 71.3555 16.1445 71.3555 14.3315C71.3555 12.4408 69.934 11.1199 67.7114 11.1199C65.7471 11.1199 64.274 12.3372 64.274 14.1502C64.2481 16.0409 65.6438 17.3618 67.8664 17.3618Z"/>
<path d="M81.6936 17.8021H74.4828V17.6726C74.9221 17.5431 75.2064 17.3877 75.2064 16.8956V11.6897C75.2064 11.094 74.948 10.9386 74.4828 10.8091V10.6796H77.5066V10.8091C77.0414 10.9386 76.783 11.1458 76.783 11.6897V16.8438C76.783 17.1028 76.8864 17.1805 77.119 17.1805H80.5305C81.125 17.1805 81.6677 16.792 82.0037 16.1963H82.1329L81.6936 17.8021Z"/>
<path d="M88.2065 10.4983C90.8944 10.4983 93.4531 11.7674 93.4531 14.1502C93.4531 16.5589 90.8169 17.9834 88.0514 17.9834C85.3894 17.9834 82.8307 16.6366 82.8307 14.3574C82.8307 11.9228 85.4411 10.4983 88.2065 10.4983ZM88.2065 17.3618C90.1707 17.3618 91.6956 16.1445 91.6956 14.3315C91.6956 12.4408 90.2741 11.1199 88.0514 11.1199C86.0872 11.1199 84.614 12.3372 84.614 14.1502C84.5882 16.0409 85.9838 17.3618 88.2065 17.3618Z"/>
<path d="M103.171 11.0422C103.248 11.0163 103.274 11.0163 103.352 10.9645H103.481L103.352 12.6998H103.223C102.783 11.4048 101.129 11.094 99.9143 11.094C98.0793 11.094 96.2185 12.13 96.2185 14.202C96.2185 16.3517 97.8726 17.3359 99.7076 17.3359C100.431 17.3359 101.258 17.1805 101.904 16.8956V15.8337C101.904 15.2898 101.568 15.0567 101.181 14.9531V14.8236H104.205V14.9531C103.739 15.0826 103.455 15.2639 103.455 15.8337V17.1287C102.37 17.6985 100.871 17.9834 99.7076 17.9834C96.6837 17.9834 94.4869 16.5589 94.4869 14.2279C94.4869 12.3372 96.1668 10.4983 99.9143 10.4983C101.284 10.4983 102.447 10.8091 103.171 11.0422Z"/>
<path d="M108.65 10.6537V10.7832C108.185 10.9127 107.926 11.1199 107.926 11.6638V16.8956C107.926 17.3877 108.185 17.5172 108.65 17.6467V17.7762H105.626V17.6467C106.065 17.5172 106.35 17.3877 106.35 16.8956V11.6897C106.35 11.094 106.091 10.9386 105.626 10.8091V10.6796H108.65V10.6537Z"/>
<path d="M117.127 15.8855H112.217L111.648 16.8179C111.596 16.9215 111.57 16.9992 111.57 17.0769C111.57 17.4136 112.01 17.569 112.346 17.6726V17.8021H109.296V17.6726C109.632 17.5949 110.227 17.4136 110.924 16.3517L114.155 11.2235L114.129 11.1717C113.974 10.9645 113.535 10.835 113.354 10.8091V10.6796H115.68L119.479 16.7402C119.893 17.4136 120.384 17.5949 120.694 17.6985V17.828H116.998V17.6985C117.36 17.5949 117.799 17.3877 117.799 17.0769C117.799 16.9992 117.773 16.8956 117.696 16.8179L117.127 15.8855ZM112.708 15.1085H116.662L114.698 11.8969L112.708 15.1085Z"/>
<path d="M30.9596 146.835H21.9397L20.8801 148.57C20.7767 148.751 20.725 148.907 20.725 149.036C20.725 149.632 21.5262 149.943 22.1465 150.098V150.331H16.5381V150.098C17.1584 149.943 18.2439 149.606 19.5103 147.664L25.4546 138.236L25.403 138.158C25.1187 137.77 24.3175 137.537 23.9556 137.485V137.226H28.2459L35.1982 148.363C35.9477 149.58 36.8523 149.943 37.4468 150.098V150.331H30.6495V150.098C31.3215 149.917 32.1485 149.528 32.1485 148.933C32.1485 148.777 32.0968 148.622 31.9676 148.441L30.9596 146.835ZM22.8184 145.436H30.0809L26.4884 139.531L22.8184 145.436Z"/>
<path d="M47.8106 150.098V150.331H42.2798V150.098C43.1327 149.865 43.6754 149.58 43.6754 148.648V138.469H39.3593C37.7827 138.469 37.1883 139.298 36.7748 140.127H36.5422L36.904 137.226H53.1606L53.5224 140.127H53.2898C52.8763 139.298 52.2818 138.469 50.7053 138.469H46.3892V148.648C46.415 149.58 46.9836 149.891 47.8106 150.098Z"/>
<path d="M61.9737 137.226V137.485C61.1209 137.744 60.6298 138.081 60.6298 139.117V148.725C60.6298 149.632 61.1209 149.865 61.9737 150.098V150.331H56.4429V150.098C57.2441 149.865 57.7868 149.606 57.7868 148.725V139.117C57.7868 138.055 57.3216 137.744 56.4429 137.485V137.226H61.9737Z"/>
<path d="M82.6757 150.72H82.4172L68.7968 139.79V148.648C68.7968 149.58 69.3138 149.891 70.115 150.098V150.331H65.7471V150.098C66.5483 149.891 67.0911 149.58 67.0911 148.648V138.884C67.0911 138.003 66.5225 137.692 65.7471 137.485V137.226H69.7273L81.0216 146.394V138.935C81.0216 138.029 80.453 137.718 79.6776 137.485V137.226H83.9938V137.485C83.1926 137.718 82.6757 138.003 82.6757 138.935V150.72Z"/>
<path d="M102.783 137.951C102.912 137.925 102.99 137.873 103.093 137.822H103.352L103.119 141.007H102.861C102.034 138.625 99.0098 138.055 96.7871 138.055C93.4014 138.055 90.0157 139.971 90.0157 143.753C90.0157 147.715 93.0654 149.502 96.4252 149.502C97.7692 149.502 99.2941 149.192 100.457 148.7V146.731C100.457 145.721 99.8626 145.333 99.1131 145.099V144.866H104.67V145.099C103.817 145.358 103.274 145.669 103.274 146.731V149.088C101.258 150.124 98.5187 150.668 96.3736 150.668C90.8427 150.668 86.7592 148.052 86.7592 143.779C86.7592 140.308 89.8347 136.941 96.7354 136.941C99.3199 136.915 101.465 137.511 102.783 137.951Z"/>
<path d="M113.509 137.226V137.485C112.656 137.744 112.165 138.081 112.165 139.117V148.725C112.165 149.632 112.656 149.865 113.509 150.098V150.331H107.978V150.098C108.779 149.865 109.322 149.606 109.322 148.725V139.117C109.322 138.055 108.857 137.744 107.978 137.485V137.226H113.509Z"/>
<path d="M118.652 139.117C118.652 138.055 118.187 137.718 117.308 137.485V137.226H126.25C130.618 137.226 132.763 138.806 132.763 140.774C132.763 142.769 130.825 144.322 127.026 144.322L132.091 148.7C133.125 149.58 133.926 149.917 134.418 150.072V150.305H130.153L122.348 143.52V143.209H126.044C128.396 143.209 129.507 142.199 129.507 140.774C129.507 139.35 128.396 138.391 126.044 138.391H122.27C121.779 138.391 121.469 138.417 121.469 139.013V148.492C121.469 149.502 121.909 149.839 122.813 150.072V150.305H117.282V150.072C118.187 149.813 118.626 149.502 118.626 148.492V139.117H118.652Z"/>
<path d="M46.751 85.9962V90.943L55.9777 88.4049L46.751 85.9962Z"/>
<path d="M82.8308 87.5502V93.0927L98.3637 91.0466C98.3637 91.0725 91.3079 86.8509 82.8308 87.5502Z"/>
<path d="M103.429 67.6591V62.7123L94.1768 65.2505L103.429 67.6591Z"/>
<path d="M67.3237 66.1052V60.5626L51.7908 62.6087C51.7908 62.5828 58.8465 66.7785 67.3237 66.1052Z"/>
<path d="M120.461 44.5047V50.0991L103.171 48.3379C103.171 48.3638 112.242 44.0644 120.461 44.5047Z"/>
<path d="M29.9 109.176V103.582L47.1904 105.343C47.1904 105.343 38.0929 109.617 29.9 109.176Z"/>
<path d="M48.9478 30.0527C52.1024 30.0527 54.6596 28.5684 54.6596 26.7375C54.6596 24.9066 52.1024 23.4223 48.9478 23.4223C45.7933 23.4223 43.2361 24.9066 43.2361 26.7375C43.2361 28.5684 45.7933 30.0527 48.9478 30.0527Z"/>
<path d="M101.62 130.363C104.775 130.363 107.332 128.878 107.332 127.047C107.332 125.216 104.775 123.732 101.62 123.732C98.4656 123.732 95.9084 125.216 95.9084 127.047C95.9084 128.878 98.4656 130.363 101.62 130.363Z"/>
<path d="M116.3 58.5942V94.6208C116.3 94.6208 100.896 68.5397 76.2661 76.1543C75.9043 76.2061 75.5424 76.2838 75.1806 76.3615C79.5226 24.018 120.41 39.8687 120.41 39.8687L120.487 23.4223H64.1448L64.9976 50.3063C58.769 50.7207 56.4688 52.1711 56.4688 52.1711L67.6597 53.0517L69.5981 28.3951H113.922V32.3836C68.1766 32.3836 73.4231 74.1082 73.785 76.5687C60.8883 78.563 50.4469 70.0419 50.4469 70.0419V70.0678C41.3494 63.0749 33.5183 49.5293 34.7589 23.4223H29.9V98.7389C29.9 98.7389 38.4289 98.2986 42.59 97.1849L34.0869 95.1906V59.164C34.0869 59.164 49.3355 84.9861 73.7333 77.7342C74.2243 77.6306 74.6896 77.527 75.1806 77.4234C70.8128 129.741 29.9517 113.89 29.9517 113.89L29.8742 130.337H86.1906L85.3377 103.453C91.5664 103.038 93.8666 101.588 93.8666 101.588L82.6757 100.707L80.7373 125.364H36.4388V121.375C82.4172 121.375 76.8605 79.2104 76.5763 77.1385C82.3655 76.1802 88.6976 77.9414 92.8587 79.5471C104.437 84.6235 117.153 97.5993 115.602 130.337H120.461V55.02C120.461 55.02 111.932 55.4603 107.771 56.574L116.3 58.5942Z"/>
<path d="M19.8721 129.456V127.358C19.8721 127.073 19.6136 126.892 19.3293 126.814V126.685H20.9575V126.814C20.6732 126.866 20.4406 127.047 20.4406 127.358V129.456H22.0689C22.4824 129.456 22.6375 129.249 22.7409 128.886H22.8442V131.398H22.7409C22.6633 131.062 22.4566 130.855 21.9397 130.855H18.1921C17.7786 130.855 17.5977 131.01 17.5201 131.398H17.3909V125.908C17.3909 125.83 17.3392 125.726 17.3134 125.675V125.545L18.5798 125.726V125.83C18.3472 125.856 18.0371 125.96 18.0112 126.219C17.9854 126.348 17.9854 126.503 17.9854 126.659V129.43H19.8721V129.456Z"/>
<path d="M17.2617 120.546C17.2617 118.5 18.2438 116.506 20.053 116.506C21.888 116.506 22.9735 118.552 22.9735 120.676C22.9735 122.748 21.9397 124.742 20.1563 124.742C18.373 124.742 17.2617 122.722 17.2617 120.546ZM22.4566 120.598C22.4566 119.122 21.552 118.06 20.1822 118.06C18.8382 118.06 17.8561 119.096 17.8561 120.65C17.8561 122.126 18.7349 123.162 20.1305 123.162C21.4744 123.162 22.4566 122.152 22.4566 120.598Z"/>
<path d="M22.9993 108.037V108.166L18.6832 113.994H22.1206C22.4824 113.994 22.6375 113.787 22.7409 113.45H22.8442V115.47H22.7409C22.6633 115.133 22.5083 114.9 22.1464 114.9H18.1146C17.7528 114.9 17.5977 115.159 17.5201 115.47H17.3909V113.631L20.8542 108.943H18.1404C17.7786 108.943 17.6235 109.176 17.546 109.513H17.4168V107.467H17.546C17.6235 107.804 17.8044 108.037 18.1404 108.037H22.9993Z"/>
<path d="M17.2617 102.313C17.2617 100.267 18.2438 98.2727 20.053 98.2727C21.888 98.2727 22.9735 100.319 22.9735 102.443C22.9735 104.515 21.9397 106.509 20.1563 106.509C18.373 106.535 17.2617 104.489 17.2617 102.313ZM22.4566 102.391C22.4566 100.914 21.552 99.8526 20.1822 99.8526C18.8382 99.8526 17.8561 100.889 17.8561 102.443C17.8561 103.919 18.7349 104.955 20.1305 104.955C21.4744 104.955 22.4566 103.945 22.4566 102.391Z"/>
<path d="M21.4486 92.1344V95.6827L22.0947 96.0971C22.4049 96.3043 22.6116 95.9935 22.715 95.5532H22.8184V97.936H22.7409C22.6633 97.4439 22.3532 97.159 21.9397 96.9L17.9854 94.3877L17.9078 94.4395C17.7528 94.5431 17.5977 94.8021 17.546 95.0611H17.4168V93.0668L21.9655 90.2178C22.4049 89.933 22.6892 89.6222 22.7409 89.2078H22.8442V92.3157H22.7409C22.6633 91.979 22.4307 91.5387 22.0947 91.7459L21.4486 92.1344ZM20.7508 95.2683V92.5747L18.554 93.8956L20.7508 95.2683Z"/>
<path d="M20.4406 82.5774C22.2498 82.5774 22.9993 84.1573 22.9993 85.789C22.9993 87.602 22.3532 89.0524 20.4406 89.0524H18.218C17.8044 89.0524 17.6235 89.2596 17.546 89.6222H17.4168V87.0581H17.546C17.6494 87.3948 17.8044 87.6279 18.218 87.6279H20.4665C22.0172 87.6279 22.4307 86.7991 22.4307 85.6595C22.4307 84.6753 22.0689 83.5875 20.4665 83.5875H18.218C17.8044 83.5875 17.6235 83.7947 17.546 84.1314H17.4168V82.0076H17.546C17.6235 82.3702 17.8044 82.5774 18.218 82.5774H20.4406Z"/>
<path d="M22.8442 80.9198H22.7409C22.6375 80.5572 22.4824 80.35 22.0689 80.35H18.1921C17.7786 80.35 17.5977 80.5313 17.5201 80.9198H17.3909V77.7342C17.3909 74.4449 18.6315 73.1758 20.1047 73.1758C21.5778 73.1758 22.8184 74.4449 22.8184 77.7342V80.9198H22.8442ZM22.1464 78.9773C22.224 78.9773 22.2756 78.8996 22.2756 78.796V77.7342C22.2756 75.6104 21.3194 74.7298 20.1047 74.7298C18.8899 74.7298 17.9595 75.6104 17.9595 77.7083V78.9773H22.1464Z"/>
<path d="M17.546 69.5757C17.6235 69.9642 17.8044 70.1455 18.218 70.1455H22.1464C22.5083 70.1455 22.6633 69.9124 22.7667 69.5757H22.8701V72.088H22.7409C22.6633 71.7513 22.5083 71.5441 22.1464 71.5441H18.1921C17.7786 71.5441 17.5977 71.7254 17.5201 72.088H17.3909V69.5757H17.546Z"/>
<path d="M17.2617 64.2922C17.2617 62.2461 18.2438 60.2518 20.053 60.2518C21.888 60.2518 22.9735 62.2979 22.9735 64.4217C22.9735 66.4937 21.9397 68.4879 20.1563 68.4879C18.373 68.4879 17.2617 66.4678 17.2617 64.2922ZM22.4566 64.344C22.4566 62.8677 21.552 61.8058 20.1822 61.8058C18.8382 61.8058 17.8561 62.8418 17.8561 64.3958C17.8561 65.8721 18.7349 66.908 20.1305 66.908C21.4744 66.908 22.4566 65.898 22.4566 64.344Z"/>
<path d="M17.546 56.6258C17.6235 57.0143 17.8044 57.1956 18.218 57.1956H22.1206C22.2756 57.1956 22.3273 57.1438 22.3273 57.0661V54.2949C22.3273 53.8287 21.9655 53.4402 21.5778 53.2589V53.1294L22.8701 53.4661V59.1381H22.7409C22.6633 58.8014 22.4824 58.5942 22.1206 58.5942H18.1921C17.7786 58.5942 17.5977 58.7755 17.5201 59.1381H17.3909V56.6258H17.546Z"/>
<path d="M17.2617 48.4674C17.2617 46.4213 18.2438 44.427 20.053 44.427C21.888 44.427 22.9735 46.4731 22.9735 48.5969C22.9735 50.6689 21.9397 52.6632 20.1563 52.6632C18.373 52.6632 17.2617 50.643 17.2617 48.4674ZM22.4566 48.5192C22.4566 47.0429 21.552 45.981 20.1822 45.981C18.8382 45.981 17.8561 47.017 17.8561 48.571C17.8561 50.0473 18.7349 51.0833 20.1305 51.0833C21.4744 51.1092 22.4566 50.0991 22.4566 48.5192Z"/>
<path d="M22.3015 36.5276C22.7667 37.4341 22.9993 38.3665 22.9993 39.4284C22.9993 41.7594 21.8621 43.7018 20.1047 43.7018C18.6573 43.7018 17.2617 42.4069 17.2617 39.5579C17.2617 38.5478 17.4168 37.5636 17.6494 36.8902C17.6235 36.7089 17.5718 36.6312 17.4685 36.5535V36.4499L18.9158 36.5276V36.6571C18.1404 36.9161 17.8303 38.3924 17.8303 39.3248C17.8303 40.7493 18.554 42.1479 20.1047 42.1479C21.6037 42.1479 22.379 40.827 22.379 39.2471C22.379 38.7291 22.2756 38.3147 22.0947 37.9003H21.2935C20.8542 37.9003 20.6732 38.1852 20.5957 38.4701H20.4923V35.9578H20.5957C20.6732 36.3204 20.8542 36.5276 21.2935 36.5276H22.3015Z"/>
<path d="M17.546 32.2282C17.6235 32.6167 17.8044 32.798 18.218 32.798H22.1464C22.5083 32.798 22.6633 32.5908 22.7667 32.2282H22.8701V34.7405H22.7409C22.6633 34.4038 22.5083 34.1966 22.1464 34.1966H18.1921C17.7786 34.1966 17.5977 34.3779 17.5201 34.7405H17.3909V32.2282H17.546Z"/>
<path d="M21.4486 25.7015V29.2498L22.0947 29.6642C22.4049 29.8714 22.6116 29.5606 22.715 29.1203H22.8184V31.503H22.7409C22.6633 31.011 22.3532 30.7261 21.9397 30.4671L17.9595 27.9548L17.882 28.0066C17.7269 28.1102 17.5718 28.3692 17.5201 28.6282H17.3909V26.6598L21.9655 23.7849C22.4049 23.5 22.6892 23.1892 22.7409 22.7748H22.8442V25.8828H22.7409C22.6633 25.5461 22.4307 25.1058 22.0947 25.313L21.4486 25.7015ZM20.7508 28.8095V26.1159L18.5798 27.4368L20.7508 28.8095Z"/>
<path d="M132.427 23.9144C132.815 23.9144 132.97 23.7072 133.074 23.3964H133.177V26.8152C133.177 28.8872 132.531 29.5865 131.704 29.5865C130.903 29.5865 130.231 28.8354 130.231 26.8152V25.2094H128.783C128.396 25.2094 128.241 25.3907 128.137 25.7274H128.034V23.3705H128.137C128.241 23.7072 128.37 23.8885 128.783 23.8885H132.427V23.9144ZM132.66 25.3907C132.66 25.2353 132.634 25.1835 132.479 25.1835H130.773V26.6598C130.773 27.5922 131.083 28.1102 131.73 28.1102C132.376 28.1102 132.686 27.6181 132.686 26.6598V25.3907H132.66Z"/>
<path d="M129.765 29.8973V30.0268C128.732 30.4671 128.499 31.6585 128.499 32.7462C128.499 33.834 128.706 34.7405 129.326 34.7405C130.722 34.7405 129.223 30.0527 131.678 30.0527C133.125 30.0527 133.28 31.7362 133.28 32.7721C133.28 34.1189 133.074 34.6369 132.893 34.9995L133.048 35.129V35.2326H131.575V35.129C132.376 35.0254 132.686 33.9635 132.686 32.9534C132.686 32.0211 132.583 31.1146 131.988 31.1146C130.618 31.1146 132.091 35.7765 129.636 35.7765C128.111 35.7765 127.905 34.0412 127.905 32.7462C127.905 31.3995 128.137 30.493 128.396 30.0009L129.765 29.8973Z"/>
<path d="M133.177 38.9622H133.074C132.996 38.5996 132.841 38.4183 132.427 38.4183H128.732C128.396 38.4183 128.241 38.6255 128.163 38.9622H128.06V36.6053H128.163C128.241 36.9161 128.396 37.1233 128.732 37.1233H132.427C132.815 37.1233 132.97 36.9679 133.074 36.6053H133.177V38.9622Z"/>
<path d="M128.525 43.7278C128.525 44.7378 128.887 45.8774 129.636 46.2918V46.3954L128.396 46.1882C128.111 45.4371 127.93 44.686 127.93 43.7019C127.93 41.0083 129.248 39.6615 130.618 39.6615C131.988 39.6615 133.306 41.0342 133.306 43.676C133.306 44.5565 133.151 45.3335 132.944 45.9551C132.944 46.0587 132.996 46.0846 133.022 46.1364V46.24L131.678 46.1364V46.0328C132.427 45.7738 132.738 44.6343 132.738 43.7019C132.738 42.3551 132.04 41.1119 130.618 41.1119C129.171 41.1119 128.525 42.4328 128.525 43.7278Z"/>
<path d="M133.306 50.8502C133.306 52.7668 132.376 54.6575 130.67 54.6575C128.938 54.6575 127.905 52.7409 127.905 50.7207C127.905 48.7523 128.861 46.8875 130.541 46.8875C132.272 46.9134 133.306 48.8041 133.306 50.8502ZM128.447 50.7984C128.447 52.197 129.3 53.1812 130.592 53.1812C131.859 53.1812 132.789 52.2229 132.789 50.7466C132.789 49.348 131.962 48.3897 130.644 48.3897C129.352 48.3897 128.447 49.348 128.447 50.7984Z"/>
<path d="M132.453 56.5999C132.867 56.7035 132.996 56.3927 133.074 56.1078H133.177V57.9985L129.817 59.941L133.177 61.9871V63.7483H133.074C132.996 63.4375 132.815 63.1785 132.453 63.2562L129.119 64.085C128.37 64.2663 128.266 64.3958 128.163 64.7325H128.06V62.531H128.163C128.189 62.7641 128.292 62.8418 128.551 62.8418C128.68 62.8418 128.861 62.8159 129.068 62.7641L132.04 62.0648L127.982 59.6302V59.5266L132.014 57.2215L129.068 56.574C128.887 56.5222 128.732 56.4963 128.602 56.4963C128.318 56.4963 128.215 56.6258 128.163 56.833H128.06V55.1496H128.163C128.215 55.3568 128.318 55.5899 129.016 55.7712L132.453 56.5999Z"/>
<path d="M133.306 68.8764C133.306 70.793 132.376 72.6837 130.67 72.6837C128.938 72.6837 127.905 70.7671 127.905 68.7469C127.905 66.7786 128.861 64.9138 130.541 64.9138C132.272 64.9397 133.306 66.8304 133.306 68.8764ZM128.447 68.8246C128.447 70.2232 129.3 71.2074 130.592 71.2074C131.859 71.2074 132.789 70.2491 132.789 68.7728C132.789 67.3743 131.962 66.416 130.644 66.416C129.352 66.416 128.447 67.3743 128.447 68.8246Z"/>
<path d="M132.014 79.2882V79.1846C132.247 79.081 132.634 78.822 132.634 78.5371V76.8018H128.757C128.421 76.8018 128.266 77.0349 128.189 77.3457H128.085V74.9629H128.189C128.266 75.2737 128.421 75.5068 128.757 75.5068H132.634V73.7974C132.634 73.5125 132.298 73.2794 132.014 73.1499V73.0463L133.203 73.2017V79.1846L132.014 79.2882Z"/>
<path d="M132.427 80.5313C132.815 80.5313 132.97 80.3242 133.074 80.0134H133.177V83.8724C133.177 85.4523 132.557 86.2293 131.755 86.2293C131.032 86.2293 130.437 85.5559 130.36 84.2609L128.757 86.0998C128.396 86.5142 128.215 86.8509 128.189 87.0322H128.085V85.0897L130.799 82.163H130.903V83.4062C130.903 84.3645 131.29 84.753 131.807 84.753C132.298 84.753 132.686 84.3904 132.686 83.4062V82.0853C132.686 81.9558 132.686 81.8522 132.505 81.8522H128.835C128.447 81.8522 128.292 82.0335 128.189 82.3702H128.085V80.0134H128.189C128.292 80.3501 128.421 80.5313 128.835 80.5313H132.427Z"/>
<path d="M133.177 89.8553H133.074C132.996 89.4927 132.841 89.3114 132.427 89.3114H128.732C128.396 89.3114 128.241 89.5186 128.163 89.8553H128.06V87.4984H128.163C128.241 87.8092 128.396 88.0164 128.732 88.0164H132.427C132.815 88.0164 132.97 87.861 133.074 87.4984H133.177V89.8553Z"/>
<path d="M128.525 94.6467C128.525 95.6568 128.887 96.7964 129.636 97.2108V97.3144L128.396 97.1072C128.111 96.3561 127.93 95.605 127.93 94.6208C127.93 91.9272 129.248 90.5805 130.618 90.5805C131.988 90.5805 133.306 91.9531 133.306 94.5949C133.306 95.4755 133.151 96.2525 132.944 96.8741C132.944 96.9777 132.996 97.0036 133.022 97.0554V97.159L131.678 97.0554V96.9518C132.427 96.6928 132.738 95.5532 132.738 94.6208C132.738 93.274 132.04 92.0308 130.618 92.0308C129.171 92.0308 128.525 93.3258 128.525 94.6467Z"/>
<path d="M133.177 100.552H133.074C132.996 100.189 132.841 100.008 132.427 100.008H128.732C128.396 100.008 128.241 100.215 128.163 100.552H128.06V98.195H128.163C128.241 98.5058 128.396 98.713 128.732 98.713H132.427C132.815 98.713 132.97 98.5576 133.074 98.195H133.177V100.552Z"/>
<path d="M128.06 101.614H128.163C128.266 101.95 128.396 102.132 128.809 102.132H132.427C132.815 102.132 132.97 101.95 133.074 101.614H133.177V104.618C133.177 107.726 132.014 108.892 130.618 108.892C129.223 108.892 128.06 107.7 128.06 104.618V101.614ZM128.706 103.427C128.628 103.427 128.577 103.504 128.577 103.608V104.592C128.577 106.587 129.481 107.415 130.618 107.415C131.755 107.415 132.634 106.587 132.634 104.618V103.427H128.706Z"/>
<path d="M129.378 114.356V111.015L128.757 110.627C128.447 110.42 128.266 110.73 128.163 111.145H128.06V108.892H128.163C128.241 109.358 128.525 109.617 128.912 109.876L132.634 112.233L132.712 112.181C132.867 112.077 132.996 111.844 133.048 111.585H133.151V113.45L128.861 116.169C128.447 116.428 128.189 116.739 128.137 117.128H128.034V114.201H128.137C128.215 114.512 128.421 114.926 128.757 114.719L129.378 114.356ZM130.024 111.404V113.942L132.091 112.699L130.024 111.404Z"/>
<path d="M128.06 117.283H128.163C128.266 117.62 128.396 117.801 128.809 117.801H132.427C132.815 117.801 132.97 117.62 133.074 117.283H133.177V120.287C133.177 123.395 132.014 124.561 130.618 124.561C129.223 124.561 128.06 123.37 128.06 120.287V117.283ZM128.706 119.096C128.628 119.096 128.577 119.174 128.577 119.277V120.262C128.577 122.256 129.481 123.085 130.618 123.085C131.755 123.085 132.634 122.256 132.634 120.287V119.096H128.706Z"/>
<path d="M130.954 127.125V128.964C130.954 129.378 131.032 129.689 131.471 129.793V129.896L129.92 129.767V129.663C130.334 129.586 130.437 129.378 130.437 128.964V127.125H128.706C128.628 127.125 128.602 127.151 128.602 127.229V130C128.602 130.622 128.938 130.932 129.3 131.062V131.165L128.06 130.855V125.26H128.163C128.266 125.597 128.396 125.778 128.809 125.778H132.427C132.815 125.778 132.97 125.571 133.074 125.26H133.177V130.544C133.177 130.647 133.177 130.777 133.254 130.855V130.958L132.04 130.803V130.699C132.298 130.673 132.634 130.544 132.634 129.819V127.125H130.954Z"/>
<defs>
<filter id="filter0_f_4028_404" x="0" y="0" width="151.356" height="171.518" filterUnits="userSpaceOnUse" color-interpolation-filters="sRGB">
<feFlood flood-opacity="0" result="BackgroundImageFix"/>
<feBlend mode="normal" in="SourceGraphic" in2="BackgroundImageFix" result="shape"/>
<feGaussianBlur stdDeviation="2" result="effect1_foregroundBlur_4028_404"/>
</filter>
</defs>
</svg>
