<svg width="552" height="459" viewBox="0 0 552 459" fill="none" xmlns="http://www.w3.org/2000/svg">
<path d="M522.225 457.951C539.23 100.516 275.929 130.411 275.684 130.438C429.752 77.0346 526.478 240.555 526.478 240.555L526.478 21.582L474.648 9.45214C500.011 2.67819 551.998 0 551.998 0L551.998 457.951L522.225 457.951ZM0.472665 358.075C0.472665 358.075 249.534 454.486 276 136.268L284.507 134.062C284.507 134.062 327.198 403.603 40.0137 403.602L40.0137 427.705L310.027 427.705L321.842 277.732L390.055 283.246C390.055 283.246 376.034 291.911 338.068 294.589L343.267 458.109L0 458.109L0.472665 358.075ZM323.89 198.493C375.561 194.24 418.567 219.76 418.567 219.76L323.89 232.205L323.89 198.493ZM435.896 458.109C416.669 458.109 401.081 449.081 401.081 437.944C401.081 426.808 416.669 417.78 435.896 417.78C455.124 417.78 470.711 426.808 470.711 437.944C470.711 449.081 455.124 458.109 435.896 458.109Z" fill="#FAFAFA"/>
</svg>
