<svg width="552" height="459" viewBox="0 0 552 459" fill="none" xmlns="http://www.w3.org/2000/svg">
<path d="M29.7734 0.158203C12.7679 357.593 276.069 327.699 276.314 327.671C122.246 381.075 25.5205 217.555 25.5205 217.555V436.527L77.3496 448.657C51.9866 455.431 0 458.109 0 458.109V0.158203H29.7734ZM551.525 100.034C551.525 100.034 302.464 3.62359 275.998 321.842L267.491 324.048C267.491 324.048 224.8 54.5068 511.984 54.5068V30.4043H241.971L230.156 180.377L161.943 174.863C161.943 174.863 175.964 166.199 213.93 163.521L208.731 0H551.998L551.525 100.034ZM228.108 259.616C176.437 263.869 133.431 238.35 133.431 238.35L228.108 225.904V259.616ZM116.102 0C135.329 0 150.917 9.02857 150.917 20.165C150.917 31.3013 135.329 40.3291 116.102 40.3291C96.8741 40.3291 81.2875 31.3013 81.2871 20.165C81.2871 9.0286 96.8738 3.70181e-05 116.102 0Z" fill="#FAFAFA"/>
</svg>
