<svg width="207" height="48" viewBox="0 0 207 48" fill="none" xmlns="http://www.w3.org/2000/svg">
<path d="M0 0V33.3279C0 33.3279 3.78205 33.1331 5.62724 32.6403L1.85664 31.7578V15.8273C1.85664 15.8273 8.89355 27.7236 20.1022 23.8384C20.1022 23.8384 0.928322 26.0274 2.16608 0.0114606H0V0Z" fill="#F18C63"/>
<path d="M40.1591 47.3215V13.9822C40.1591 13.9822 36.377 14.177 34.5318 14.6698L38.3139 15.5638V31.4942C38.3139 31.4942 31.277 19.598 20.0684 23.4832C20.0684 23.4832 39.2422 21.2941 38.0045 47.3101H40.1591V47.3215Z" fill="#F18C63"/>
<path d="M11.7812 12.7214C11.7812 12.7214 12.8013 12.0911 15.5633 11.8963L15.1851 0H40.1581L40.1237 7.27758C40.1237 7.27758 22.0043 0.263598 20.0788 23.4143L19.46 23.5748C19.46 23.5748 16.3541 3.96542 37.2471 3.96542V2.21193H17.6033L16.7438 13.1226L11.7812 12.7214Z" fill="#F18C63"/>
<path d="M28.3654 34.6C28.3654 34.6 27.3454 35.2304 24.5833 35.4252L24.9615 47.3215H0L0.0343822 40.0439C0.0343822 40.0439 18.1538 47.0579 20.0793 23.9072L20.6981 23.7467C20.6981 23.7467 23.804 43.3561 2.91103 43.3561V45.121H22.5662L23.4258 34.2104L28.3654 34.6Z" fill="#F18C63"/>
<path d="M7.47266 27.6892V29.8782L11.5641 28.7665L7.47266 27.6892Z" fill="#F18C63"/>
<path d="M23.4717 28.3767V30.8294L30.3596 29.9239C30.3596 29.9354 27.2308 28.0788 23.4717 28.3767Z" fill="#F18C63"/>
<path d="M32.6059 19.5865V17.3975L28.5029 18.5092L32.6059 19.5865Z" fill="#F18C63"/>
<path d="M16.595 18.8873V16.4347L9.70703 17.3401C9.70703 17.3401 12.8358 19.1967 16.595 18.8873Z" fill="#F18C63"/>
<path d="M40.1585 9.3405V11.816L32.4912 11.0367C32.4912 11.0367 36.5139 9.14567 40.1585 9.3405Z" fill="#F18C63"/>
<path d="M0 37.9466V35.4711L7.66725 36.2504C7.66725 36.2504 3.63306 38.1414 0 37.9466Z" fill="#F18C63"/>
<path d="M8.44591 2.93396C9.84476 2.93396 10.9787 2.27717 10.9787 1.46698C10.9787 0.656788 9.84476 0 8.44591 0C7.04707 0 5.91309 0.656788 5.91309 1.46698C5.91309 2.27717 7.04707 2.93396 8.44591 2.93396Z" fill="#F18C63"/>
<path d="M31.8033 47.3215C33.2022 47.3215 34.3362 46.6647 34.3362 45.8545C34.3362 45.0444 33.2022 44.3876 31.8033 44.3876C30.4045 44.3876 29.2705 45.0444 29.2705 45.8545C29.2705 46.6647 30.4045 47.3215 31.8033 47.3215Z" fill="#F18C63"/>
<path d="M9.11133 20.6409C9.11133 20.6409 14.0853 24.6865 20.0907 23.4258C26.0962 22.1537 31.2306 24.6178 31.2306 24.6178L29.9814 25.7638C29.9814 25.7638 24.5146 22.7955 20.0793 23.9072C15.644 25.0189 11.117 23.2425 11.117 23.2425L9.11133 20.6409Z" fill="#F18C63"/>
<path d="M71.415 20.0486H59.6146L58.2283 22.3141C58.093 22.5507 58.0254 22.7536 58.0254 22.9227C58.0254 23.7003 59.0736 24.1061 59.8851 24.3089V24.6133H52.5479V24.3089C53.3593 24.1061 54.7794 23.6665 56.4362 21.1306L64.213 8.82303L64.1454 8.7216C63.7735 8.21442 62.7253 7.91011 62.2519 7.84248V7.50436H67.8647L76.9602 22.0435C77.9407 23.6327 79.1241 24.1061 79.9018 24.3089V24.6133H71.0092V24.3089C71.8883 24.0723 72.9703 23.5651 72.9703 22.7874C72.9703 22.5845 72.9027 22.3817 72.7336 22.145L71.415 20.0486ZM60.7642 18.2228H70.2654L65.5655 10.5136L60.7642 18.2228Z" fill="#267963"/>
<path d="M93.4604 24.3089V24.6133H86.2247V24.3089C87.3405 24.0046 88.0505 23.6327 88.0505 22.4155V9.12735H82.4039C80.3414 9.12735 79.5637 10.2093 79.0227 11.2913H78.7184L79.1918 7.50436H100.46L100.933 11.2913H100.629C100.088 10.2093 99.3099 9.12735 97.2474 9.12735H91.6008V22.4155C91.6346 23.6327 92.3785 24.0384 93.4604 24.3089Z" fill="#267963"/>
<path d="M111.989 7.50436V7.84248C110.874 8.1806 110.231 8.62017 110.231 9.97265V22.5169C110.231 23.7003 110.874 24.0046 111.989 24.3089V24.6133H104.754V24.3089C105.802 24.0046 106.512 23.6665 106.512 22.5169V9.97265C106.512 8.58636 105.903 8.1806 104.754 7.84248V7.50436H111.989Z" fill="#267963"/>
<path d="M139.073 25.1204H138.735L120.916 10.8518V22.4155C120.916 23.6327 121.592 24.0384 122.64 24.3089V24.6133H116.926V24.3089C117.974 24.0384 118.684 23.6327 118.684 22.4155V9.66833C118.684 8.51872 117.94 8.11298 116.926 7.84248V7.50436H122.133L136.909 19.4738V9.73596C136.909 8.55254 136.165 8.14679 135.151 7.84248V7.50436H140.797V7.84248C139.749 8.14679 139.073 8.51873 139.073 9.73596V25.1204Z" fill="#267963"/>
<path d="M165.379 8.45111C165.548 8.4173 165.649 8.34967 165.784 8.28205H166.123L165.818 12.4409H165.48C164.398 9.33022 160.442 8.58635 157.534 8.58635C153.105 8.58635 148.676 11.0884 148.676 16.025C148.676 21.1983 152.665 23.5313 157.061 23.5313C158.819 23.5313 160.814 23.1256 162.336 22.4831V19.9134C162.336 18.5947 161.558 18.0875 160.577 17.7832V17.4789H167.847V17.7832C166.731 18.1214 166.021 18.5271 166.021 19.9134V22.9903C163.384 24.3428 159.8 25.0528 156.993 25.0528C149.758 25.0528 144.415 21.6378 144.415 16.0588C144.415 11.528 148.439 7.13243 157.467 7.13243C160.848 7.09862 163.654 7.8763 165.379 8.45111Z" fill="#267963"/>
<path d="M179.411 7.50436V7.84248C178.295 8.1806 177.652 8.62017 177.652 9.97265V22.5169C177.652 23.7003 178.295 24.0046 179.411 24.3089V24.6133H172.175V24.3089C173.223 24.0046 173.933 23.6665 173.933 22.5169V9.97265C173.933 8.58636 173.325 8.1806 172.175 7.84248V7.50436H179.411Z" fill="#267963"/>
<path d="M186.139 9.97265C186.139 8.58636 185.531 8.14679 184.381 7.84248V7.50436H196.08C201.794 7.50436 204.601 9.56689 204.601 12.1366C204.601 14.7401 202.065 16.7689 197.094 16.7689L203.722 22.4831C205.074 23.6327 206.122 24.0723 206.765 24.2751V24.5795H201.186L190.974 15.7207V15.3149H195.81C198.886 15.3149 200.34 13.9963 200.34 12.1366C200.34 10.2769 198.886 9.02592 195.81 9.02592H190.873C190.231 9.02592 189.825 9.05972 189.825 9.83739V22.2126C189.825 23.5313 190.4 23.9708 191.583 24.2751V24.5795H184.347V24.2751C185.531 23.937 186.105 23.5313 186.105 22.2126V9.97265H186.139Z" fill="#267963"/>
<path d="M53.3024 31.6377C53.3024 31.0392 53.0422 30.8831 52.5739 30.753V30.6229H57.3877C59.9897 30.6229 61.0566 31.4815 61.0566 32.5744C61.0566 33.6412 59.9897 34.5259 57.3877 34.5259H54.8637V36.8158C54.8637 37.3622 55.0979 37.5443 55.5923 37.6744V37.8045H52.5479V37.6744C53.0422 37.5443 53.2764 37.3622 53.2764 36.8158V31.6377H53.3024ZM55.306 31.2213C55.0198 31.2213 54.8377 31.2474 54.8377 31.5856V33.8754H57.3617C58.8188 33.8754 59.2351 33.2249 59.2351 32.5484C59.2351 31.8718 58.7928 31.2213 57.3617 31.2213H55.306Z" fill="#267963"/>
<path d="M62.1234 35.5147H62.2535C62.7739 37.0239 64.5694 37.2841 65.8444 37.2841C67.3536 37.2841 68.7327 36.9459 68.7327 35.9831C68.7327 33.7974 62.2535 36.0091 62.2535 32.6525C62.2535 30.831 64.3872 30.4147 66.2867 30.4147C67.4056 30.4147 68.3944 30.5968 69.0709 31.0132C69.149 30.9871 69.227 30.9611 69.2791 30.831H69.4092V32.5224H69.2791C69.0449 31.2213 67.1454 31.0392 66.3127 31.0392C64.9076 31.0392 63.6066 31.3775 63.6066 32.2101C63.6066 34.3178 70.0857 32.1321 70.0857 35.5668C70.0857 37.4663 67.6398 37.9346 65.8183 37.9346C64.153 37.9346 62.904 37.5704 62.1755 37.2061L62.1234 35.5147Z" fill="#267963"/>
<path d="M74.5352 30.5968V30.7269C74.0669 30.857 73.8067 31.0652 73.8067 31.6116V36.8678C73.8067 37.3622 74.0669 37.4923 74.5352 37.6224V37.7525H71.4908V37.6224C71.9332 37.4923 72.2194 37.3622 72.2194 36.8678V31.6377C72.2194 31.0392 71.9592 30.8831 71.4908 30.753V30.6229H74.5352V30.5968Z" fill="#267963"/>
<path d="M81.5868 37.3101C82.8098 37.3101 84.319 36.9198 84.9695 35.6708H85.0996L84.9174 37.18C83.7725 37.6484 82.6537 37.9086 81.3266 37.9086C77.7098 37.9086 75.8363 36.0872 75.8363 34.1617C75.8363 32.2622 77.6577 30.3887 81.3526 30.3887C82.5756 30.3887 83.6945 30.6229 84.6572 30.9351C84.7353 30.9091 84.8134 30.857 84.8914 30.805H84.9955L84.7613 32.7045H84.6312C84.2669 31.5336 82.9139 31.0132 81.5868 31.0132C79.6093 31.0132 77.6317 32.054 77.6317 34.1356C77.6317 36.2953 79.6093 37.3101 81.5868 37.3101Z" fill="#267963"/>
<path d="M91.7348 30.4407C94.441 30.4407 97.017 31.7157 97.017 34.1096C97.017 36.5295 94.3629 37.9607 91.5787 37.9607C88.8986 37.9607 86.3226 36.6076 86.3226 34.3178C86.3226 31.8718 88.9506 30.4407 91.7348 30.4407ZM91.7348 37.3362C93.7124 37.3362 95.2476 36.1132 95.2476 34.2918C95.2476 32.3923 93.8165 31.0652 91.5787 31.0652C89.6012 31.0652 88.118 32.2882 88.118 34.1096C88.092 36.0091 89.4971 37.3362 91.7348 37.3362Z" fill="#267963"/>
<path d="M105.656 37.7785H98.3961V37.6484C98.8385 37.5183 99.1247 37.3622 99.1247 36.8678V31.6377C99.1247 31.0392 98.8645 30.8831 98.3961 30.753V30.6229H101.441V30.753C100.972 30.8831 100.712 31.0912 100.712 31.6377V36.8158C100.712 37.076 100.816 37.154 101.05 37.154H104.485C105.083 37.154 105.63 36.7637 105.968 36.1652H106.098L105.656 37.7785Z" fill="#267963"/>
<path d="M112.213 30.4407C114.919 30.4407 117.495 31.7157 117.495 34.1096C117.495 36.5295 114.841 37.9607 112.057 37.9607C109.377 37.9607 106.801 36.6076 106.801 34.3178C106.801 31.8718 109.429 30.4407 112.213 30.4407ZM112.213 37.3362C114.191 37.3362 115.726 36.1132 115.726 34.2918C115.726 32.3923 114.295 31.0652 112.057 31.0652C110.079 31.0652 108.596 32.2882 108.596 34.1096C108.57 36.0091 109.975 37.3362 112.213 37.3362Z" fill="#267963"/>
<path d="M127.279 30.9871C127.357 30.9611 127.383 30.9611 127.461 30.9091H127.591L127.461 32.6525H127.331C126.889 31.3514 125.223 31.0392 124 31.0392C122.153 31.0392 120.279 32.08 120.279 34.1617C120.279 36.3214 121.945 37.3101 123.792 37.3101C124.521 37.3101 125.353 37.154 126.004 36.8678V35.801C126.004 35.2545 125.666 35.0203 125.275 34.9163V34.7861H128.32V34.9163C127.851 35.0464 127.565 35.2285 127.565 35.801V37.102C126.472 37.6744 124.963 37.9607 123.792 37.9607C120.748 37.9607 118.536 36.5295 118.536 34.1877C118.536 32.2882 120.227 30.4407 124 30.4407C125.379 30.4407 126.55 30.753 127.279 30.9871Z" fill="#267963"/>
<path d="M132.795 30.5968V30.7269C132.327 30.857 132.067 31.0652 132.067 31.6116V36.8678C132.067 37.3622 132.327 37.4923 132.795 37.6224V37.7525H129.751V37.6224C130.193 37.4923 130.479 37.3622 130.479 36.8678V31.6377C130.479 31.0392 130.219 30.8831 129.751 30.753V30.6229H132.795V30.5968Z" fill="#267963"/>
<path d="M141.33 35.853H136.386L135.814 36.7897C135.762 36.8938 135.736 36.9719 135.736 37.0499C135.736 37.3882 136.178 37.5443 136.516 37.6484V37.7785H133.446V37.6484C133.784 37.5704 134.383 37.3882 135.085 36.3214L138.338 31.1693L138.312 31.1172C138.156 30.9091 137.713 30.779 137.531 30.753V30.6229H139.873L143.698 36.7117C144.114 37.3882 144.609 37.5704 144.921 37.6744V37.8045H141.2V37.6744C141.564 37.5704 142.007 37.3622 142.007 37.0499C142.007 36.9719 141.981 36.8678 141.903 36.7897L141.33 35.853ZM136.881 35.0724H140.862L138.884 31.8458L136.881 35.0724Z" fill="#267963"/>
</svg>
